# xmcd
#
# Track frame offsets: 
#        150
#        13050
#        28000
#        41725
#        54850
#        67500
#        81312
#        93530
#        104050
#        115475
#        126577
#        138015
#        150982
#        164152
#        176725
#        189375
#        200327
#        214450
#        230637
#        241560
#        252577
#        265112
#        277675
#        289177
#
# Disc length: 4014 seconds
#
# Revision: 4
# Processed by: cddbd v1.5.2PL0 Copyright (c) Steve Scherf et al.
# Submitted via: ExactAudioCopy v1.1
#
DISCID=5b0fac18
DTITLE=Various Artist - White Country Blues 1926-1938 (Roots N' Blues
DTITLE=) - Disc 2
DYEAR=1993
DGENRE=Blues
TTITLE0=The Blue Ridge Ramblers (Prairie Ramblers) - Jug Rag (mono)
TTITLE1=The Blue Ridge Ramblers (Prairie Ramblers) - Deep Elem Blues (
TTITLE1=mono)
TTITLE2=Clayton McMichen - Prohibition Blues (mono)
TTITLE3=Larry Hensley - Match Box Blues (mono)
TTITLE4=The Callahan Brothers - Somebody's Been Using That Thing (mono
TTITLE4=)
TTITLE5=Homer Callahan - Rattle Snake Daddy (mono)
TTITLE6=Homer Callahan - My Good Gal Has Thrown Me Down (mono)
TTITLE7=W. Lee O'Daniel and His Hillbilly Boys - Dirty Hangover Blues (m
TTITLE7=ono)
TTITLE8=W. Lee O'Daniel and His Hillbilly Boys - Tuck Away My Lonesome B
TTITLE8=lues (mono)
TTITLE9=Asa Martin and His Kentucky Hillbillies - Lonesome, Broke And We
TTITLE9=ary (mono)
TTITLE10=Cliff Carlisle - Chicken Roost Blues (mono)
TTITLE11=Cliff Carlisle - Tom Cat Blues (mono)
TTITLE12=Bill Cox and Cliff Hobbs - Oozlin' Daddy Blues (mono)
TTITLE13=Bill Cox and Cliff Hobbs - Kansas City Blues (mono)
TTITLE14=Ramblin' Red Lowery - Ramblin' Red's Memphis Yodel No. 1 (mon
TTITLE14=o)
TTITLE15=The Anglin Brothers - Southern Whoopie Song (mono)
TTITLE16=The Allen Brothers - Drunk And Nutty Blues (mono)
TTITLE17=The Allen Brothers - Chattanooga Mama (mono)
TTITLE18=Smiling Bill Carlisle - String Bean Mama (mono)
TTITLE19=Smiling Bill Carlisle - Copper Head Mama (mono)
TTITLE20=Bill Cox - Long Chain Charlie Blues (mono)
TTITLE21=Bill Cox - Georgia Brown Blues (mono)
TTITLE22=Al Dexter - New Jelly Roll Blues (mono)
TTITLE23=The Rhythm Wreckers - Never No Mo' Blues (mono)
EXTD=
EXTT0=
EXTT1=
EXTT2=
EXTT3=
EXTT4=
EXTT5=
EXTT6=
EXTT7=
EXTT8=
EXTT9=
EXTT10=
EXTT11=
EXTT12=
EXTT13=
EXTT14=
EXTT15=
EXTT16=
EXTT17=
EXTT18=
EXTT19=
EXTT20=
EXTT21=
EXTT22=
EXTT23=
PLAYORDER=
